<svg width="34" height="30" viewBox="0 0 34 30" fill="none" xmlns="http://www.w3.org/2000/svg">
<path d="M28.6663 5.83353H26.533L25.9997 4.16687C25.6539 3.18892 25.0126 2.34271 24.1645 1.74547C23.3164 1.14823 22.3036 0.829535 21.2663 0.833533H12.733C11.6856 0.835493 10.6652 1.16634 9.81595 1.77938C8.96667 2.39241 8.33136 3.25668 7.99967 4.2502L7.46634 5.91687H5.33301C4.00693 5.91687 2.73516 6.44365 1.79747 7.38133C0.859792 8.31902 0.333008 9.59079 0.333008 10.9169V24.2502C0.333008 25.5763 0.859792 26.8481 1.79747 27.7857C2.73516 28.7234 4.00693 29.2502 5.33301 29.2502H28.6663C29.9924 29.2502 31.2642 28.7234 32.2019 27.7857C33.1396 26.8481 33.6663 25.5763 33.6663 24.2502V10.9169C33.6774 10.2533 33.5562 9.59413 33.3099 8.97785C33.0636 8.36157 32.6971 7.80049 32.2317 7.32734C31.7663 6.85418 31.2113 6.47842 30.5992 6.22195C29.9871 5.96548 29.33 5.83344 28.6663 5.83353ZM30.333 24.1669C30.333 24.6089 30.1574 25.0328 29.8449 25.3454C29.5323 25.6579 29.1084 25.8335 28.6663 25.8335H5.33301C4.89098 25.8335 4.46706 25.6579 4.1545 25.3454C3.84194 25.0328 3.66634 24.6089 3.66634 24.1669V10.8335C3.66634 10.3915 3.84194 9.96758 4.1545 9.65502C4.46706 9.34246 4.89098 9.16687 5.33301 9.16687H8.66634C9.02978 9.18584 9.38945 9.08532 9.6904 8.88068C9.99135 8.67603 10.217 8.3785 10.333 8.03353L11.233 5.3002C11.3448 4.96916 11.5578 4.68164 11.842 4.47827C12.1261 4.2749 12.4669 4.16597 12.8163 4.16687H21.3497C21.6991 4.16597 22.0399 4.2749 22.3241 4.47827C22.6082 4.68164 22.8212 4.96916 22.933 5.3002L23.833 8.03353C23.94 8.35144 24.1403 8.62968 24.408 8.83188C24.6756 9.03408 24.998 9.15083 25.333 9.16687H28.6663C29.1084 9.16687 29.5323 9.34246 29.8449 9.65502C30.1574 9.96758 30.333 10.3915 30.333 10.8335V24.1669ZM16.9997 9.16687C15.6811 9.16687 14.3922 9.55786 13.2959 10.2904C12.1995 11.0229 11.3451 12.0641 10.8405 13.2823C10.3359 14.5005 10.2039 15.8409 10.4611 17.1341C10.7183 18.4273 11.3533 19.6152 12.2856 20.5476C13.218 21.4799 14.4059 22.1149 15.6991 22.3721C16.9923 22.6293 18.3327 22.4973 19.5509 21.9927C20.7691 21.4881 21.8103 20.6337 22.5428 19.5373C23.2753 18.441 23.6663 17.1521 23.6663 15.8335C23.6663 14.0654 22.964 12.3697 21.7137 11.1195C20.4635 9.86925 18.7678 9.16687 16.9997 9.16687ZM16.9997 19.1669C16.3404 19.1669 15.6959 18.9714 15.1478 18.6051C14.5996 18.2388 14.1724 17.7182 13.9201 17.1091C13.6678 16.5001 13.6018 15.8298 13.7304 15.1832C13.859 14.5366 14.1765 13.9427 14.6427 13.4765C15.1088 13.0103 15.7028 12.6929 16.3494 12.5642C16.996 12.4356 17.6662 12.5016 18.2753 12.7539C18.8844 13.0062 19.405 13.4335 19.7712 13.9816C20.1375 14.5298 20.333 15.1743 20.333 15.8335C20.333 16.7176 19.9818 17.5654 19.3567 18.1906C18.7316 18.8157 17.8837 19.1669 16.9997 19.1669Z" fill="white"/>
</svg>
