<svg width="20" height="20" viewBox="0 0 20 20" fill="none" xmlns="http://www.w3.org/2000/svg">
<path d="M7.35493 5.69723C7.181 5.87496 7.08337 6.1154 7.08337 6.36601C7.08337 6.61662 7.181 6.85705 7.35493 7.03479L10.6607 10.4403L7.35493 13.7985C7.181 13.9762 7.08337 14.2166 7.08337 14.4672C7.08337 14.7179 7.181 14.9583 7.35493 15.136C7.44174 15.2249 7.54503 15.2955 7.65882 15.3437C7.77262 15.3918 7.89468 15.4166 8.01796 15.4166C8.14124 15.4166 8.26329 15.3918 8.37709 15.3437C8.49089 15.2955 8.59417 15.2249 8.68099 15.136L12.6405 11.1139C12.728 11.0257 12.7975 10.9208 12.8449 10.8052C12.8923 10.6896 12.9167 10.5656 12.9167 10.4403C12.9167 10.3151 12.8923 10.1911 12.8449 10.0755C12.7975 9.95993 12.728 9.85501 12.6405 9.76682L8.68099 5.69723C8.59417 5.60832 8.49089 5.53774 8.37709 5.48958C8.26329 5.44142 8.14124 5.41663 8.01796 5.41663C7.89468 5.41663 7.77262 5.44142 7.65882 5.48958C7.54503 5.53774 7.44174 5.60832 7.35493 5.69723Z" fill="#F06320"/>
</svg>
