<svg width="20" height="20" viewBox="0 0 20 20" fill="none" xmlns="http://www.w3.org/2000/svg">
<path d="M10.8334 15.8333V12.4999H13.3334L10.0001 8.33325L6.66675 12.4999H9.16675V15.8333H10.8334Z" fill="#212C4A"/>
<path d="M5.83341 15.8334H7.50008V14.1667H5.83341C4.45508 14.1667 3.33341 13.0451 3.33341 11.6667C3.33341 10.4967 4.33258 9.37008 5.56091 9.15425L6.04508 9.06925L6.20508 8.60425C6.79092 6.89508 8.24592 5.83341 10.0001 5.83341C12.2976 5.83341 14.1667 7.70258 14.1667 10.0001V10.8334H15.0001C15.9192 10.8334 16.6667 11.5809 16.6667 12.5001C16.6667 13.4192 15.9192 14.1667 15.0001 14.1667H12.5001V15.8334H15.0001C16.8384 15.8334 18.3334 14.3384 18.3334 12.5001C18.3321 11.7531 18.0806 11.0281 17.619 10.4408C17.1574 9.85348 16.5123 9.43779 15.7867 9.26008C15.4226 6.39175 12.9667 4.16675 10.0001 4.16675C7.70341 4.16675 5.70841 5.50925 4.79758 7.62508C3.00758 8.16008 1.66675 9.85008 1.66675 11.6667C1.66675 13.9642 3.53591 15.8334 5.83341 15.8334Z" fill="#E95812"/>
</svg>
