<svg width="16" height="16" viewBox="0 0 16 16" fill="none" xmlns="http://www.w3.org/2000/svg">
<path d="M6.26676 12.2666C6.44358 12.2666 6.61314 12.1964 6.73817 12.0714C6.86319 11.9464 6.93343 11.7768 6.93343 11.6V7.59998C6.93343 7.42316 6.86319 7.2536 6.73817 7.12857C6.61314 7.00355 6.44358 6.93331 6.26676 6.93331C6.08995 6.93331 5.92038 7.00355 5.79536 7.12857C5.67034 7.2536 5.6001 7.42316 5.6001 7.59998V11.6C5.6001 11.7768 5.67034 11.9464 5.79536 12.0714C5.92038 12.1964 6.08995 12.2666 6.26676 12.2666ZM12.9334 4.26664H10.2668V3.59998C10.2668 3.06954 10.0561 2.56083 9.68098 2.18576C9.30591 1.81069 8.7972 1.59998 8.26676 1.59998H6.93343C6.403 1.59998 5.89429 1.81069 5.51922 2.18576C5.14414 2.56083 4.93343 3.06954 4.93343 3.59998V4.26664H2.26676C2.08995 4.26664 1.92038 4.33688 1.79536 4.4619C1.67034 4.58693 1.6001 4.7565 1.6001 4.93331C1.6001 5.11012 1.67034 5.27969 1.79536 5.40471C1.92038 5.52974 2.08995 5.59998 2.26676 5.59998H2.93343V12.9333C2.93343 13.4637 3.14414 13.9725 3.51922 14.3475C3.89429 14.7226 4.403 14.9333 4.93343 14.9333H10.2668C10.7972 14.9333 11.3059 14.7226 11.681 14.3475C12.0561 13.9725 12.2668 13.4637 12.2668 12.9333V5.59998H12.9334C13.1102 5.59998 13.2798 5.52974 13.4048 5.40471C13.5299 5.27969 13.6001 5.11012 13.6001 4.93331C13.6001 4.7565 13.5299 4.58693 13.4048 4.4619C13.2798 4.33688 13.1102 4.26664 12.9334 4.26664ZM6.26676 3.59998C6.26676 3.42316 6.337 3.2536 6.46203 3.12857C6.58705 3.00355 6.75662 2.93331 6.93343 2.93331H8.26676C8.44358 2.93331 8.61314 3.00355 8.73817 3.12857C8.86319 3.2536 8.93343 3.42316 8.93343 3.59998V4.26664H6.26676V3.59998ZM10.9334 12.9333C10.9334 13.1101 10.8632 13.2797 10.7382 13.4047C10.6131 13.5297 10.4436 13.6 10.2668 13.6H4.93343C4.75662 13.6 4.58705 13.5297 4.46203 13.4047C4.337 13.2797 4.26676 13.1101 4.26676 12.9333V5.59998H10.9334V12.9333ZM8.93343 12.2666C9.11024 12.2666 9.27981 12.1964 9.40484 12.0714C9.52986 11.9464 9.6001 11.7768 9.6001 11.6V7.59998C9.6001 7.42316 9.52986 7.2536 9.40484 7.12857C9.27981 7.00355 9.11024 6.93331 8.93343 6.93331C8.75662 6.93331 8.58705 7.00355 8.46203 7.12857C8.337 7.2536 8.26676 7.42316 8.26676 7.59998V11.6C8.26676 11.7768 8.337 11.9464 8.46203 12.0714C8.58705 12.1964 8.75662 12.2666 8.93343 12.2666Z" fill="#E95812"/>
</svg>
